<svg xmlns="http://www.w3.org/2000/svg" viewBox="0 0 16 16" fill="none" shape-rendering="crispEdges" width="120" height="120"><metadata xmlns:rdf="http://www.w3.org/1999/02/22-rdf-syntax-ns#" xmlns:xsi="http://www.w3.org/2001/XMLSchema-instance" xmlns:dc="http://purl.org/dc/elements/1.1/" xmlns:dcterms="http://purl.org/dc/terms/"><rdf:RDF><rdf:Description><dc:title>Pixel Art</dc:title><dc:creator>DiceBear</dc:creator><dc:source xsi:type="dcterms:URI">https://www.figma.com/community/file/1198754108850888330</dc:source><dcterms:license xsi:type="dcterms:URI">https://creativecommons.org/publicdomain/zero/1.0/</dcterms:license><dc:rights>„Pixel Art” (https://www.figma.com/community/file/1198754108850888330) by „DiceBear”, licensed under „CC0 1.0” (https://creativecommons.org/publicdomain/zero/1.0/)</dc:rights></rdf:Description></rdf:RDF></metadata><mask id="viewboxMask"><rect width="16" height="16" rx="3.52" ry="3.52" x="0" y="0" fill="#fff" /></mask><g mask="url(#viewboxMask)"><rect fill="url(#backgroundLinear)" width="16" height="16" x="0" y="0" /><defs><linearGradient id="backgroundLinear" gradientTransform="rotate(295 0.5 0.5)"><stop stop-color="#06b6d4"/><stop offset="1" stop-color="#0891b2"/></linearGradient></defs><path d="M4 2h8v1h1v3h1v2h-1v3h-1v1H9v1h4v1h1v2H2v-2h1v-1h4v-1H4v-1H3V8H2V6h1V3h1V2Z" fill="#a26d3d"/><path d="M4 2h8v1h1v3h1v2h-1v3h-1v1H4v-1H3V8H2V6h1V3h1V2Z" fill="#fff" fill-opacity=".1"/><path d="M5 13H4v3h3v-1H6v-1H5v-1ZM12 13h-1v1h-1v1H9v1h3v-3Z" fill="#ae0001"/><path fill="#fff" d="M4 5h3v2H4zM9 5h3v2H9z"/><path d="M11 5h-1v1H9v1h3V6h-1V5Z" fill="#697b94"/><path fill="#fff" fill-opacity=".5" d="M9 6h1v1H9zM10 5h1v1h-1zM11 6h1v1h-1z"/><path d="M6 5H5v1H4v1h3V6H6V5Z" fill="#697b94"/><path fill="#fff" fill-opacity=".5" d="M4 6h1v1H4zM5 5h1v1H5zM6 6h1v1H6z"/><path fill-rule="evenodd" clip-rule="evenodd" d="M12 4H9v1H7V4H4v1H2v1h1v2h1v1h3V8h2v1h3V8h1V6h1V5h-2V4Zm0 1v3H9V5h3ZM7 8H4V5h3v3Z" fill="#43677d"/><path fill="#fff" fill-opacity=".3" d="M9 5h3v3H9zM4 5h3v3H4z"/><path fill="#fff" fill-opacity=".2" d="M2 5h1v1H2zM13 5h1v1h-1z"/><path d="M6 10v1h1v-1h3V9H7v1H6Z" fill="#e35d6a"/><path d="M2 1h12v1h1v11h-1v-1h-1V8h1V6h-1V3H3v3H2v2h1v4H2v1H1V2h1V1Z" fill="#a78961"/></g></svg>